<svg xmlns="http://www.w3.org/2000/svg" viewBox="0 0 240 320">
  <defs>
    <linearGradient id="bg" x1="0" y1="0" x2="0" y2="1">
      <stop offset="0%" stop-color="#102a50"/>
      <stop offset="100%" stop-color="#081420"/>
    </linearGradient>
    <linearGradient id="sh" x1="0.5" y1="0" x2="0.5" y2="1">
      <stop offset="0%" stop-color="#70b8ff"/>
      <stop offset="100%" stop-color="#3068c0"/>
    </linearGradient>
  </defs>
  <rect width="240" height="320" rx="16" fill="url(#bg)"/>
  <rect x="6" y="6" width="228" height="308" rx="12" fill="none" stroke="#4080d0" stroke-width="1.5" opacity="0.3"/>
  <!-- Glow -->
  <ellipse cx="120" cy="155" rx="50" ry="55" fill="#4090ff" opacity="0.07"/>
  <!-- Shield shape -->
  <path d="M120 60 L175 95 L175 175 Q175 230 120 260 Q65 230 65 175 L65 95Z" fill="url(#sh)" opacity="0.85" stroke="#90c8ff" stroke-width="1.5"/>
  <!-- Shield inner highlight -->
  <path d="M120 78 L163 107 L163 170 Q163 215 120 240 Q77 215 77 170 L77 107Z" fill="none" stroke="#b0d8ff" stroke-width="1" opacity="0.3"/>
  <!-- Center cross -->
  <rect x="114" y="115" width="12" height="80" rx="4" fill="#d4a017" opacity="0.7"/>
  <rect x="90" y="145" width="60" height="12" rx="4" fill="#d4a017" opacity="0.7"/>
  <!-- Shine -->
  <path d="M90 95 L120 78 L130 85 L100 100Z" fill="white" opacity="0.1"/>
</svg>
