<svg xmlns="http://www.w3.org/2000/svg" viewBox="0 0 240 320">
  <defs>
    <linearGradient id="bg" x1="0" y1="0" x2="0" y2="1">
      <stop offset="0%" stop-color="#1a2e6e"/>
      <stop offset="100%" stop-color="#0c1428"/>
    </linearGradient>
    <linearGradient id="blade" x1="0" y1="0" x2="0" y2="1">
      <stop offset="0%" stop-color="#e8f0ff"/>
      <stop offset="100%" stop-color="#a0b8d8"/>
    </linearGradient>
  </defs>
  <rect width="240" height="320" rx="16" fill="url(#bg)"/>
  <rect x="6" y="6" width="228" height="308" rx="12" fill="none" stroke="#4070c0" stroke-width="1.5" opacity="0.35"/>
  <!-- Glow -->
  <circle cx="120" cy="140" r="60" fill="#4080ff" opacity="0.06"/>
  <!-- Sword blade -->
  <path d="M120 45 L130 170 L120 185 L110 170Z" fill="url(#blade)" stroke="#8098b8" stroke-width="0.8"/>
  <line x1="120" y1="60" x2="120" y2="170" stroke="#ffffff" stroke-width="0.6" opacity="0.3"/>
  <!-- Guard -->
  <rect x="94" y="182" width="52" height="9" rx="4" fill="#d4a017"/>
  <rect x="96" y="184" width="48" height="5" rx="3" fill="#e8c040" opacity="0.5"/>
  <!-- Grip -->
  <rect x="112" y="191" width="16" height="32" rx="4" fill="#7a4a20"/>
  <rect x="114" y="193" width="4" height="28" rx="2" fill="#9a6830" opacity="0.4"/>
  <!-- Pommel -->
  <circle cx="120" cy="228" r="8" fill="#d4a017"/>
  <circle cx="120" cy="228" r="4" fill="#e8c040" opacity="0.5"/>
  <!-- Stars -->
  <circle cx="40" cy="60" r="1.5" fill="#c0d0ff" opacity="0.6"/>
  <circle cx="190" cy="80" r="1" fill="#c0d0ff" opacity="0.5"/>
  <circle cx="55" cy="260" r="1.2" fill="#c0d0ff" opacity="0.4"/>
  <circle cx="180" cy="270" r="1" fill="#c0d0ff" opacity="0.3"/>
</svg>
